Coordinates
version=1
nRows=4
nColumns=63
inDegrees=yes

Units are S.I. units (second, meters, Newtons, ...)
If the header above contains a line with 'inDegrees', this indicates whether rotational values are in degrees (yes) or radians (no).

endheader
time	pelvis_tilt	pelvis_list	pelvis_rotation	pelvis_tx	pelvis_ty	pelvis_tz	hip_flexion_r	hip_adduction_r	hip_rotation_r	knee_angle_r	knee_angle_r_beta	ankle_angle_r	subtalar_angle_r	mtp_angle_r	hip_flexion_l	hip_adduction_l	hip_rotation_l	knee_angle_l	knee_angle_l_beta	ankle_angle_l	subtalar_angle_l	mtp_angle_l	L5_S1_Flex_Ext	L5_S1_Lat_Bending	L5_S1_axial_rotation	L4_L5_Flex_Ext	L4_L5_Lat_Bending	L4_L5_axial_rotation	L3_L4_Flex_Ext	L3_L4_Lat_Bending	L3_L4_axial_rotation	L2_L3_Flex_Ext	L2_L3_Lat_Bending	L2_L3_axial_rotation	L1_L2_Flex_Ext	L1_L2_Lat_Bending	L1_L2_axial_rotation	L1_T12_Flex_Ext	L1_T12_Lat_Bending	L1_T12_axial_rotation	Abs_r3	Abs_r2	Abs_r1	Abs_t1	Abs_t2	neck_flexion	neck_bending	neck_rotation	arm_flex_r	arm_add_r	arm_rot_r	elbow_flex_r	pro_sup_r	wrist_flex_r	wrist_dev_r	arm_flex_l	arm_add_l	arm_rot_l	elbow_flex_l	pro_sup_l	wrist_flex_l	wrist_dev_l
      4.32142857	      0.80617992	     -5.25450377	     94.20155245	      0.12690655	      1.12454881	     -0.04117681	     -1.89034341	     -0.62164172	      9.73380588	      7.23290159	      0.12623795	     31.40470992	    -15.44420219	      0.00000000	     -3.44949132	      1.21307976	      8.78896312	      1.22460643	      0.02137341	     32.85081431	     -4.16249663	      0.00000000	     -0.31418425	     -0.69185087	     -1.60189581	     -0.58347158	     -0.92016165	     -1.70201430	     -0.51617331	     -1.68216619	     -1.70201430	     -0.35908118	     -1.68216619	     -1.40165884	     -0.29175150	     -1.41082229	     -1.30154035	     -0.17952488	     -1.07167699	     -1.20142186	     -2.24418670	     -7.82635536	     -8.90926395	      0.00000000	      0.00000000	     11.62992009	      6.50646267	    -22.47359332	     24.96976051	    -25.10163835	    -27.84390686	    139.43133632	     88.04764000	      1.38892822	     22.98315652	     -3.59528423	    -14.87014747	    132.04720205	      1.48419693	      6.02196025	      0.29802455	     -2.45077427
      4.33928571	      0.80860369	     -5.38879666	     92.70748904	      0.12979956	      1.12419496	     -0.04157740	     -1.44380427	     -0.60395137	     11.07728160	      7.41338888	      0.12938804	     31.86623441	    -15.44799368	      0.00000000	     -3.44943217	      1.18965509	      7.65315133	      1.21681904	      0.02123750	     32.97681490	     -4.22830220	      0.00000000	     -0.31135303	     -0.65527124	     -1.70576059	     -0.57821371	     -0.87151075	     -1.81237062	     -0.51152189	     -1.59322650	     -1.81237062	     -0.35584538	     -1.59322650	     -1.49254051	     -0.28912242	     -1.33622912	     -1.38593048	     -0.17790712	     -1.01501516	     -1.27932044	     -2.22396356	     -7.41255935	     -9.48692866	      0.00000000	      0.00000000	     11.98471891	      6.23894205	    -21.25988086	     24.87691810	    -25.99834788	    -25.02584255	    139.43876878	     86.03382381	      1.69179131	     23.47437375	     -3.39060336	    -14.58180980	    132.63038818	      1.32508436	      6.77039452	      1.34249676	     -1.14002514
      4.35714286	      0.89994705	     -5.70355336	     91.30179298	      0.13278043	      1.12333101	     -0.04178813	     -0.81731622	     -0.43056218	     12.86271004	      7.58218079	      0.13233402	     32.14996952	    -16.12866047	      0.00000000	     -3.22142495	      1.05725463	      5.92699481	      1.29130914	      0.02253760	     33.38327772	     -3.43217749	      0.00000000	     -0.28459883	     -0.60977449	     -1.80944844	     -0.52852848	     -0.81100007	     -1.92253896	     -0.46756741	     -1.48260570	     -1.92253896	     -0.32526800	     -1.48260570	     -1.58326738	     -0.26427847	     -1.24345214	     -1.47017685	     -0.16261977	     -0.94454069	     -1.35708633	     -2.03286095	     -6.89789099	    -10.06360937	      0.00000000	      0.00000000	     13.16609494	      5.89270536	    -20.68908783	     24.67100701	    -26.67434510	    -23.21115425	    140.87502979	     79.35033907	      1.84139096	     24.64633582	     -3.22324465	    -14.31837321	    133.05862047	      1.21243135	      7.10552079	      2.17466345	     -0.57656695
      4.37500000	      0.90699385	     -5.99063067	     89.72523603	      0.13640189	      1.12223304	     -0.04145592	     -0.15783729	     -0.29346243	     14.57734706	      7.85324412	      0.13706497	     32.55413815	    -16.38772573	      0.00000000	     -3.01313246	      0.98393798	      4.50571463	      1.39248454	      0.02430344	     33.68760255	     -3.23028491	      0.00000000	     -0.26341857	     -0.58002988	     -1.91042621	     -0.48919463	     -0.77143975	     -2.02982784	     -0.43277037	     -1.41028466	     -2.02982784	     -0.30106109	     -1.41028466	     -1.67162293	     -0.24461049	     -1.18279694	     -1.55222129	     -0.15051737	     -0.89846629	     -1.43281965	     -1.88157252	     -6.56141406	    -10.62521743	      0.00000000	      0.00000000	     14.92396964	      5.69078428	    -20.88918889	     24.63762301	    -26.98524703	    -22.89367096	    143.46126640	     73.59629530	      3.35743146	     25.06374385	     -3.13143753	    -14.17836620	    132.98215363	      1.20951319	      7.13245103	      3.22726619	     -0.40175133
